<?xml version="1.0" standalone="no"?>
<!DOCTYPE svg PUBLIC "-//W3C//DTD SVG 1.1//EN" "http://www.w3.org/Graphics/SVG/1.1/DTD/svg11.dtd" >
<svg xmlns="http://www.w3.org/2000/svg" xmlns:xlink="http://www.w3.org/1999/xlink" version="1.1">
<metadata>
Created by FontForge 20170731 at Mon Jul 16 18:57:27 2018
 By Aleksey,,,
Copyright 2018, Modification of this file requires prior written permission from Merck &#38; Co., Inc.
</metadata>
<defs>
<font id="Invention-ExtraBold" horiz-adv-x="1310" >
  <font-face 
    font-family="Invention ExtraBold"
    font-weight="800"
    font-stretch="normal"
    units-per-em="2048"
    panose-1="2 11 8 3 2 0 8 2 2 4"
    ascent="1638"
    descent="-410"
    x-height="1073"
    cap-height="1548"
    bbox="-215 -590 2089 2259"
    underline-thickness="114"
    underline-position="-911"
    unicode-range="U+000D-FB04"
  />
<missing-glyph horiz-adv-x="748" 
d="M68 0v1365h544v-1365h-544zM136 68h408v1229h-408v-1229z" />
    <glyph glyph-name=".notdef" horiz-adv-x="748" 
d="M68 0v1365h544v-1365h-544zM136 68h408v1229h-408v-1229z" />
    <glyph glyph-name="glyph1" horiz-adv-x="0" 
 />
    <glyph glyph-name="glyph1" horiz-adv-x="0" 
 />
    <glyph glyph-name="uni000D" unicode="&#xd;" horiz-adv-x="442" 
 />
    <glyph glyph-name="space" unicode=" " horiz-adv-x="442" 
 />
    <glyph glyph-name="exclam" unicode="!" horiz-adv-x="677" 
d="M129 1548h420l-55 -1018h-310zM141 154q0 100 48.5 145t150.5 45t150.5 -45t48.5 -145t-48.5 -145.5t-150.5 -45.5t-150.5 45t-48.5 146z" />
    <glyph glyph-name="quotedbl" unicode="&#x22;" horiz-adv-x="1005" 
d="M141 1585h303l-59 -622h-184zM561 1585h303l-59 -622h-184z" />
    <glyph glyph-name="numbersign" unicode="#" horiz-adv-x="1652" 
d="M63 422v260h261l43 205h-215v258h268l92 436h354l-92 -436h266l93 436h352l-92 -436h194v-258h-248l-43 -205h203v-260h-258l-88 -422h-352l88 422h-266l-88 -422h-355l88 422h-205zM678 682h266l43 205h-266z" />
    <glyph glyph-name="dollar" unicode="$" horiz-adv-x="1316" 
d="M78 178l149 268q76 -74 179.5 -114.5t228.5 -40.5q119 0 173 39t54 116q0 63 -39 99.5t-131 62.5l-137 39q-233 66 -331.5 175.5t-98.5 271.5q0 186 108.5 300.5t284.5 149.5v266h330v-264q102 -20 185 -61t153 -92l-142 -250q-78 53 -157.5 83.5t-179.5 30.5
q-117 0 -165 -38.5t-48 -96.5q0 -51 35.5 -79.5t119.5 -53.5l154 -43q123 -35 220 -92t152.5 -150.5t55.5 -236.5q0 -184 -96.5 -297t-264.5 -156v-307h-329v285q-135 12 -249 58t-214 128z" />
    <glyph glyph-name="percent" unicode="%" horiz-adv-x="1761" 
d="M63 1133q0 211 89.5 323.5t253.5 112.5t253 -112.5t89 -323.5q0 -209 -89 -321.5t-253 -112.5t-253.5 112.5t-89.5 321.5zM291 0l895 1548h287l-895 -1548h-287zM309 1133q0 -109 22 -170.5t75 -61.5t74.5 61.5t21.5 170.5q0 111 -21.5 172t-74.5 61t-75 -61.5
t-22 -171.5zM1013 414q0 211 89.5 323.5t253.5 112.5t253 -112.5t89 -323.5q0 -209 -89 -321.5t-253 -112.5t-253.5 112.5t-89.5 321.5zM1259 414q0 -109 22 -170.5t75 -61.5t74.5 61.5t21.5 170.5q0 111 -21.5 172t-74.5 61t-75 -61.5t-22 -171.5z" />
    <glyph glyph-name="ampersand" unicode="&#x26;" horiz-adv-x="1714" 
d="M53 428q0 106 40 192.5t105.5 147.5t141.5 92q-53 74 -76.5 138.5t-23.5 140.5q0 121 56 222t164.5 162.5t266.5 61.5q186 0 311 -97t172 -274l-286 -86q-23 100 -80.5 134t-106.5 34q-57 0 -105 -35.5t-48 -111.5q0 -57 33.5 -109.5t101 -117t168.5 -158.5l239 -223
q35 78 56.5 177t27.5 218h316q-31 -362 -180 -602l356 -334h-475l-105 98q-96 -66 -214 -100.5t-257 -34.5q-184 0 -318 58.5t-207 163t-73 243.5zM412 479q0 -121 85 -177t201 -56q117 0 213 51l-247 231q-41 39 -78 74t-70 68q-55 -33 -79.5 -83.5t-24.5 -107.5z" />
    <glyph glyph-name="quotesingle" unicode="'" horiz-adv-x="585" 
d="M141 1585h303l-59 -622h-184z" />
    <glyph glyph-name="parenleft" unicode="(" horiz-adv-x="804" 
d="M53 688q0 401 151.5 658.5t428.5 388.5l162 -230q-123 -84 -206 -190.5t-126 -257t-43 -369.5t43 -370.5t126 -258t206 -190.5l-162 -227q-276 129 -428 386t-152 660z" />
    <glyph glyph-name="parenright" unicode=")" horiz-adv-x="804" 
d="M10 -131q121 84 205 190.5t127 258t43 370.5t-43 369.5t-127 257t-205 190.5l162 230q276 -131 428 -388t152 -659q0 -403 -152 -660t-428 -386z" />
    <glyph glyph-name="asterisk" unicode="*" horiz-adv-x="1081" 
d="M61 1141l86 262l295 -141l-43 319h279l-41 -319l293 141l88 -262l-316 -60l238 -239l-221 -162l-180 315l-179 -315l-221 162l236 239z" />
    <glyph glyph-name="plus" unicode="+" 
d="M193 645v258h319v334h289v-334h317v-258h-317v-336h-289v336h-319z" />
    <glyph glyph-name="comma" unicode="," horiz-adv-x="655" 
d="M94 -295q111 47 160 108.5t51 149.5h-4q-78 0 -127 46t-49 149q0 188 197 188q96 0 139 -36t59 -83q12 -35 19.5 -80t7.5 -98q0 -209 -98.5 -336t-260.5 -184z" />
    <glyph glyph-name="hyphen" unicode="-" horiz-adv-x="811" 
d="M119 444v258h573v-258h-573z" />
    <glyph glyph-name="period" unicode="." horiz-adv-x="655" 
d="M129 154q0 100 48 145t151 45q102 0 150 -45t48 -145t-48 -145.5t-150 -45.5t-150.5 45t-48.5 146z" />
    <glyph glyph-name="slash" unicode="/" horiz-adv-x="972" 
d="M-23 -287l664 1835h354l-663 -1835h-355z" />
    <glyph glyph-name="zero" unicode="0" 
d="M76 774q0 414 151.5 612.5t427.5 198.5t428 -198.5t152 -612.5t-152 -612.5t-428 -198.5t-427.5 198.5t-151.5 612.5zM446 774q0 -252 44 -388t165 -136t165 136t44 388t-44 388t-165 136t-165 -136t-44 -388z" />
    <glyph glyph-name="one" unicode="1" horiz-adv-x="882" 
d="M4 1325l397 223h340v-1548h-356v1200l-231 -131z" />
    <glyph glyph-name="two" unicode="2" horiz-adv-x="1173" 
d="M45 1059q27 256 161 391t372 135q231 0 370 -124t139 -347q0 -90 -27.5 -174t-90 -175t-167 -203.5t-257.5 -262.5h561v-299h-1045v242q180 168 307.5 291.5t206 219t114.5 177.5t36 164q0 90 -43 142t-123 52q-88 0 -133 -73.5t-64 -206.5z" />
    <glyph glyph-name="three" unicode="3" horiz-adv-x="1177" 
d="M20 150l150 251q59 -59 148.5 -98t197.5 -39q117 0 177.5 46t60.5 128q0 45 -23.5 90t-86 75t-181.5 30h-109v282h107q94 0 144 28t69.5 74t19.5 99q0 84 -42 132t-124 48q-84 0 -129 -47t-67 -121l-287 97q27 98 87.5 180t164.5 131t258 49q242 0 373 -121t131 -315
q0 -137 -62.5 -233.5t-152.5 -133.5q127 -29 202.5 -133t75.5 -252q0 -188 -142 -310t-429 -122q-133 0 -229.5 25.5t-169 66.5t-132.5 93z" />
    <glyph glyph-name="four" unicode="4" horiz-adv-x="1282" 
d="M27 326v249l665 973h373v-925h190v-297h-190v-326h-348v326h-690zM395 623h322v489z" />
    <glyph glyph-name="five" unicode="5" horiz-adv-x="1181" 
d="M43 141l147 256q76 -70 163 -100.5t167 -30.5q113 0 175.5 53.5t62.5 161.5q0 100 -57.5 167t-194.5 67q-61 0 -122.5 -15.5t-139.5 -44.5l-113 131v762h903v-299h-569v-293q80 16 164 17q166 0 276.5 -63.5t166.5 -177.5t56 -259q0 -172 -72.5 -285.5t-201.5 -169
t-301 -55.5q-160 0 -285 45t-225 133z" />
    <glyph glyph-name="six" unicode="6" horiz-adv-x="1255" 
d="M72 764q0 252 68.5 436t211 284.5t363.5 100.5q133 0 241.5 -38t196.5 -113l-139 -248q-63 45 -132 68.5t-145 23.5q-152 0 -226.5 -98.5t-80.5 -333.5q90 176 305 176q141 0 245.5 -62.5t163 -177t58.5 -272.5q0 -166 -65.5 -289t-186.5 -190.5t-288 -67.5
q-160 0 -274 61.5t-185 174.5q-68 104 -99.5 248.5t-31.5 316.5zM453 502q0 -133 58 -197.5t142 -64.5t136.5 62.5t52.5 199.5q0 127 -48.5 187.5t-140.5 60.5q-96 0 -148 -63.5t-52 -184.5z" />
    <glyph glyph-name="seven" unicode="7" horiz-adv-x="1077" 
d="M25 1237v311h1022v-284l-531 -1264h-407l567 1237h-651z" />
    <glyph glyph-name="eight" unicode="8" horiz-adv-x="1280" 
d="M51 422q0 137 68.5 236.5t195.5 152.5q-92 51 -143 137t-51 205q0 133 65.5 229.5t182 149.5t272.5 53q154 0 270.5 -53t182 -149.5t65.5 -229.5q0 -119 -51 -205t-143 -135q127 -53 195.5 -153.5t68.5 -237.5q0 -139 -74 -242.5t-206 -159t-308 -55.5q-178 0 -310 55.5
t-206 159t-74 242.5zM422 459q0 -106 60.5 -163.5t158.5 -57.5q96 0 157.5 57t61.5 164q0 102 -59.5 158.5t-159.5 56.5t-159.5 -56.5t-59.5 -158.5zM483 1124q0 -94 42 -142t116 -48q72 0 114 48t42 142q0 92 -42 140.5t-114 48.5q-74 0 -116 -48t-42 -141z" />
    <glyph glyph-name="nine" unicode="9" horiz-adv-x="1255" 
d="M53 1038q0 166 65.5 289t186.5 190.5t289 67.5q160 0 273.5 -61.5t185.5 -173.5q68 -104 99.5 -249t31.5 -317q0 -252 -68.5 -436t-211 -284.5t-363.5 -100.5q-133 0 -240.5 38t-198.5 114l140 247q63 -45 131.5 -68.5t144.5 -23.5q152 0 226.5 98.5t80.5 333.5
q-90 -176 -305 -176q-141 0 -246.5 62.5t-163 177.5t-57.5 272zM414 1047q0 -127 48 -187.5t140 -60.5q96 0 148.5 63.5t52.5 184.5q0 133 -58.5 197.5t-142.5 64.5q-82 0 -135 -62.5t-53 -199.5z" />
    <glyph glyph-name="colon" unicode=":" horiz-adv-x="655" 
d="M129 154q0 100 48 145t151 45q102 0 150 -45t48 -145t-48 -145.5t-150 -45.5t-150.5 45t-48.5 146zM129 904q0 100 48 145t151 45q102 0 150 -45t48 -145t-48 -145.5t-150 -45.5t-150.5 45t-48.5 146z" />
    <glyph glyph-name="semicolon" unicode=";" horiz-adv-x="655" 
d="M94 -295q111 47 160 108.5t51 149.5h-4q-78 0 -127 46t-49 149q0 188 197 188q96 0 139 -36t59 -83q12 -35 19.5 -80t7.5 -98q0 -209 -98.5 -336t-260.5 -184zM133 904q0 100 48 145t151 45q102 0 150 -45t48 -145t-48 -145.5t-150 -45.5t-150.5 45t-48.5 146z" />
    <glyph glyph-name="less" unicode="&#x3c;" 
d="M215 631v289l827 403v-330l-526 -215l526 -217v-334z" />
    <glyph glyph-name="equal" unicode="=" 
d="M225 424v258h860v-258h-860zM225 866v258h860v-258h-860z" />
    <glyph glyph-name="greater" unicode="&#x3e;" 
d="M270 227v330l527 217l-527 215v334l828 -403v-289z" />
    <glyph glyph-name="question" unicode="?" horiz-adv-x="1040" 
d="M33 1149q27 199 151.5 317.5t337.5 118.5q141 0 246.5 -52t163 -145.5t57.5 -216.5q0 -90 -27.5 -154.5t-70.5 -112.5t-84 -87q-59 -57 -112.5 -119.5t-57.5 -167.5h-309q-4 98 22.5 167t69.5 118t80 88q47 51 81.5 106.5t34.5 131.5q0 66 -29.5 111.5t-94.5 45.5
q-76 0 -110 -59t-48 -149zM285 154q0 100 48 145t150 45t150.5 -45t48.5 -145t-48.5 -145.5t-150.5 -45.5t-150 45t-48 146z" />
    <glyph glyph-name="at" unicode="@" horiz-adv-x="2148" 
d="M72 518q0 248 75.5 449.5t215 346t334 222.5t431.5 78q229 0 406.5 -70.5t298.5 -198.5t182.5 -299.5t61.5 -373.5q0 -203 -59.5 -352.5t-169 -231.5t-257.5 -82q-133 0 -212 65.5t-101 176.5q-63 -98 -144 -144.5t-194 -46.5q-152 0 -233.5 88t-81.5 301
q0 113 24.5 223.5t77.5 202t134 145.5t196 54q168 0 243 -143l41 112h250l-69 -559q-10 -86 6 -148.5t82 -62.5q61 0 101 56.5t59.5 147.5t19.5 196q0 129 -34 248.5t-109.5 215t-202.5 150.5t-314 55q-203 0 -344 -65.5t-228 -178t-127 -258t-40 -302.5q0 -127 31 -252
t109.5 -226.5t222 -163t368.5 -61.5q113 0 222.5 14.5t209.5 36.5l48 -250q-115 -39 -245 -56t-261 -17q-281 0 -476.5 73.5t-316.5 205.5t-176 306t-55 373zM940 475q0 -70 19.5 -124t95.5 -54q66 0 111.5 50t56.5 147l14 135q8 88 -13.5 144t-93.5 56q-57 0 -95 -33.5
t-58.5 -88t-28.5 -116t-8 -116.5z" />
    <glyph glyph-name="A" unicode="A" horiz-adv-x="1423" 
d="M20 0q41 250 114 514t171 526.5t219 507.5h377q188 -395 316.5 -794.5t185.5 -753.5h-375q-14 92 -31.5 183t-38.5 182h-516q-20 -90 -37.5 -181.5t-31.5 -183.5h-353zM510 635h381q-39 135 -86 276.5t-105 290.5q-57 -150 -104 -291t-86 -276z" />
    <glyph glyph-name="B" unicode="B" horiz-adv-x="1404" 
d="M147 0v1548h555q281 0 427.5 -111.5t146.5 -314.5q0 -111 -42 -195.5t-126 -133.5q127 -55 183.5 -153.5t56.5 -217.5q0 -199 -144.5 -310.5t-423.5 -111.5h-633zM502 276h266q102 0 159.5 44.5t57.5 134.5q0 94 -58.5 138t-160.5 44h-264v-361zM502 911h203
q100 0 155 43t55 136q0 94 -55 138t-155 44h-203v-361z" />
    <glyph glyph-name="C" unicode="C" horiz-adv-x="1308" 
d="M74 774q0 385 172 598t518 213q147 0 271 -43t235 -137l-158 -236q-74 55 -146.5 82t-156.5 27q-178 0 -268 -122t-90 -382t90 -382t268 -122q168 0 313 109l158 -238q-203 -178 -512 -178q-354 0 -524 216t-170 595z" />
    <glyph glyph-name="D" unicode="D" horiz-adv-x="1499" 
d="M147 0v1548h564q358 0 539.5 -198.5t181.5 -575.5t-181.5 -575.5t-539.5 -198.5h-564zM512 303h188q184 0 270.5 112.5t86.5 358.5t-86 358.5t-271 112.5h-188v-942z" />
    <glyph glyph-name="E" unicode="E" horiz-adv-x="1294" 
d="M147 0v1548h1047v-299h-682v-313h649v-299h-649v-338h686v-299h-1051z" />
    <glyph glyph-name="F" unicode="F" horiz-adv-x="1218" 
d="M147 0v1548h1014v-303h-649v-354h604v-303h-604v-588h-365z" />
    <glyph glyph-name="G" unicode="G" horiz-adv-x="1462" 
d="M76 762q0 256 72.5 440t228 283.5t401.5 99.5q164 0 302.5 -48t260.5 -157l-157 -237q-90 76 -182.5 108.5t-192.5 32.5q-203 0 -281.5 -128t-78.5 -396t71.5 -382t237.5 -114q145 0 207.5 79t62.5 218v57h-297v300h655v-320q0 -299 -151 -467t-477 -168q-682 0 -682 799
z" />
    <glyph glyph-name="H" unicode="H" horiz-adv-x="1538" 
d="M147 0v1548h365v-614h514v614h365v-1548h-365v627h-514v-627h-365z" />
    <glyph glyph-name="I" unicode="I" horiz-adv-x="659" 
d="M147 0v1548h365v-1548h-365z" />
    <glyph glyph-name="J" unicode="J" horiz-adv-x="1138" 
d="M2 102l127 260q55 -39 131 -64.5t154 -25.5q121 0 178 60.5t57 181.5v1034h365v-999q0 -176 -52.5 -308t-171 -205t-319.5 -73q-143 0 -263 38t-206 101z" />
    <glyph glyph-name="K" unicode="K" horiz-adv-x="1449" 
d="M147 0v1548h365v-624q129 113 212 210t143.5 195t119.5 219h408q-66 -139 -142.5 -260t-180 -240.5t-251.5 -252.5q160 -139 275.5 -267.5t197.5 -256.5t142 -271h-408q-57 123 -123.5 227.5t-161 209t-231.5 227.5v-664h-365z" />
    <glyph glyph-name="L" unicode="L" horiz-adv-x="1175" 
d="M147 0v1548h365v-1241h637v-307h-1002z" />
    <glyph glyph-name="M" unicode="M" horiz-adv-x="1822" 
d="M147 0v1548h392l376 -739l377 739h383v-1548h-360v979l-305 -594h-197l-305 598v-983h-361z" />
    <glyph glyph-name="N" unicode="N" horiz-adv-x="1560" 
d="M147 0v1548h345l563 -942v942h358v-1548h-342l-565 944v-944h-359z" />
    <glyph glyph-name="O" unicode="O" horiz-adv-x="1531" 
d="M74 774q0 408 180 609.5t512 201.5t512 -201.5t180 -609.5t-180 -609.5t-512 -201.5t-512 202t-180 609zM449 774q0 -274 74.5 -392t242.5 -118t242.5 118t74.5 392t-74.5 392t-242.5 118t-242.5 -117.5t-74.5 -392.5z" />
    <glyph glyph-name="P" unicode="P" horiz-adv-x="1384" 
d="M147 0v1548h601q293 0 444 -132t151 -392q0 -158 -60 -275.5t-190 -182t-341 -64.5h-240v-502h-365zM512 784h213q125 0 188.5 57.5t63.5 182.5q0 242 -252 242h-213v-482z" />
    <glyph glyph-name="Q" unicode="Q" horiz-adv-x="1531" 
d="M74 774q0 408 180 609.5t512 201.5t512 -201.5t180 -609.5q0 -268 -80 -448.5t-231 -270.5q68 -70 119 -132t93 -128.5t85 -148.5h-395q-43 92 -88.5 167.5t-106.5 153.5q-43 -4 -88 -4q-332 0 -512 202t-180 609zM449 774q0 -274 74.5 -392t242.5 -118t242.5 118
t74.5 392t-74.5 392t-242.5 118t-242.5 -117.5t-74.5 -392.5z" />
    <glyph glyph-name="R" unicode="R" horiz-adv-x="1452" 
d="M147 0v1548h578q303 0 454.5 -122.5t151.5 -358.5q0 -158 -70.5 -270.5t-230.5 -165.5q104 -123 176 -219.5t126 -192.5t108 -219h-406q-47 113 -96 205t-115.5 183t-160.5 202h-154v-590h-361zM508 868h194q131 0 197 48.5t66 152.5q0 102 -66 149.5t-197 47.5h-194
v-398z" />
    <glyph glyph-name="S" unicode="S" horiz-adv-x="1275" 
d="M41 162l143 260q82 -68 190.5 -112t237.5 -44q127 0 187.5 42t60.5 120q0 76 -50 115t-138 63l-144 41q-135 37 -232 92.5t-152.5 141.5t-61.5 217q-1 15 -1 29q1 132 67 230q74 109 206.5 168.5t311.5 59.5q170 0 294.5 -51t219.5 -123l-150 -242q-72 47 -159 80
t-195 33q-119 0 -172 -39t-53 -104q0 -57 43 -89t145 -63l180 -53q115 -35 208 -94.5t147.5 -154.5t54.5 -234q0 -164 -77 -272.5t-213 -162t-316 -53.5t-321.5 51.5t-260.5 147.5z" />
    <glyph glyph-name="T" unicode="T" horiz-adv-x="1269" 
d="M18 1241v307h1233v-307h-434v-1241h-364v1241h-435z" />
    <glyph glyph-name="U" unicode="U" horiz-adv-x="1480" 
d="M121 612v936h364v-946q0 -317 254 -317q256 0 256 317v946h365v-936q0 -649 -621 -649q-305 0 -461.5 162t-156.5 487z" />
    <glyph glyph-name="V" unicode="V" horiz-adv-x="1411" 
d="M20 1548h394q47 -305 119.5 -583.5t185.5 -575.5q111 297 184.5 575.5t120.5 583.5h367q-43 -254 -117 -520t-171 -527t-214 -501h-365q-123 254 -221 519t-170 525.5t-113 503.5z" />
    <glyph glyph-name="W" unicode="W" horiz-adv-x="2109" 
d="M29 1548h399q14 -129 27.5 -239.5t33 -228t53 -265t87.5 -346.5q104 330 169.5 566.5t102.5 402.5h320q39 -139 104.5 -374t179.5 -591q53 199 85 344.5t52.5 263t33 228t26.5 239.5h379q-25 -209 -79 -468t-139 -536.5t-198 -543.5h-315q-82 221 -158 439t-139 421
q-61 -205 -136 -423t-157 -437h-316q-113 270 -196.5 548.5t-139 535.5t-79.5 464z" />
    <glyph glyph-name="X" unicode="X" horiz-adv-x="1425" 
d="M10 0q76 170 206 377t298 426q-158 213 -278.5 403.5t-186.5 341.5h402q35 -82 68.5 -149.5t81.5 -149.5t128 -205q78 123 126 205t82 149.5t69 149.5h380q-68 -152 -187.5 -343t-287.5 -400q168 -223 299 -430t205 -375h-414q-29 63 -54 117.5t-56 113t-76 130
t-108 169.5q-66 -98 -110 -169.5t-76 -130t-57.5 -113t-53.5 -117.5h-400z" />
    <glyph glyph-name="Y" unicode="Y" horiz-adv-x="1333" 
d="M4 1548h397q18 -80 39 -150.5t50.5 -145t74.5 -168t113 -216.5q68 123 112 216.5t73.5 168t50 145t38.5 150.5h377q-47 -197 -164.5 -450.5t-316.5 -526.5v-571h-365v578q-195 276 -313.5 525t-165.5 445z" />
    <glyph glyph-name="Z" unicode="Z" horiz-adv-x="1277" 
d="M51 0v279l697 942h-656v327h1094v-278l-701 -942h740v-328h-1174z" />
    <glyph glyph-name="bracketleft" unicode="[" horiz-adv-x="796" 
d="M141 -348v2072h621v-274h-279v-1524h279v-274h-621z" />
    <glyph glyph-name="backslash" unicode="\" horiz-adv-x="972" 
d="M-23 1548h355l663 -1835h-354z" />
    <glyph glyph-name="bracketright" unicode="]" horiz-adv-x="796" 
d="M35 -74h278v1524h-278v274h620v-2072h-620v274z" />
    <glyph glyph-name="asciicircum" unicode="^" 
d="M152 807l358 741h291l358 -741h-328l-178 453l-178 -453h-323z" />
    <glyph glyph-name="underscore" unicode="_" horiz-adv-x="1024" 
d="M0 -115h1024v-192h-1024v192z" />
    <glyph glyph-name="grave" unicode="`" horiz-adv-x="1024" 
d="M268 1630h342l145 -397h-211z" />
    <glyph glyph-name="a" unicode="a" horiz-adv-x="1103" 
d="M37 299q0 188 155.5 300t456.5 118q-8 72 -42 103.5t-115 31.5q-66 0 -142 -23.5t-147 -74.5l-115 207q88 72 200.5 110.5t258.5 38.5q236 0 344 -108.5t108 -315.5v-448l27 -203l-305 -53l-51 188q-39 -94 -124.5 -146.5t-191.5 -52.5q-135 0 -226 87t-91 241zM377 336
q0 -63 34.5 -85t73.5 -22q59 0 112.5 41t53.5 123v133q-127 -6 -200.5 -56t-73.5 -134z" />
    <glyph glyph-name="b" unicode="b" horiz-adv-x="1236" 
d="M119 0v1548h354v-592q49 82 120 118t167 36q186 0 298.5 -135t112.5 -438q0 -287 -107 -430.5t-314 -143.5q-106 0 -178 42t-123 142l-41 -157zM473 461q0 -25 3 -62t17.5 -74.5t49.5 -63t96 -25.5q82 0 125 64.5t43 236.5q0 158 -40 229.5t-130 71.5q-76 0 -120 -52.5
t-44 -173.5v-151z" />
    <glyph glyph-name="c" unicode="c" horiz-adv-x="985" 
d="M57 524q0 297 136.5 441.5t394.5 144.5q121 0 215 -31.5t162 -89.5l-117 -213q-33 27 -86 43.5t-113 16.5q-115 0 -171 -72t-56 -229q0 -154 55 -225.5t176 -71.5q61 0 115.5 16t93.5 43l109 -213q-145 -121 -393 -121q-252 0 -386.5 134t-134.5 427z" />
    <glyph glyph-name="d" unicode="d" horiz-adv-x="1239" 
d="M66 535q0 287 107.5 431t313.5 144q96 0 163 -33t114 -108v579h354v-1310l27 -203l-305 -53l-54 178q-49 -106 -124.5 -151.5t-184.5 -45.5q-186 0 -298.5 134t-112.5 438zM430 535q0 -156 39 -227.5t129 -71.5q78 0 122 52t44 173v151q0 125 -44 175.5t-120 50.5
q-84 0 -127 -65.5t-43 -237.5z" />
    <glyph glyph-name="e" unicode="e" horiz-adv-x="1118" 
d="M55 532q0 281 130 429.5t384 148.5q231 0 356.5 -127t125.5 -383v-158h-654q6 -55 26.5 -102t73 -75.5t148.5 -28.5q168 0 285 92l117 -215q-88 -78 -202 -114t-249 -36q-260 0 -400.5 137.5t-140.5 431.5zM395 635h342q-2 43 -12 91t-46 83t-112 35t-111.5 -35t-47 -84
t-13.5 -90z" />
    <glyph glyph-name="f" unicode="f" horiz-adv-x="847" 
d="M6 813v221l184 39q6 233 119 372.5t346 139.5q106 0 183 -26.5t135 -67.5l-99 -223q-35 20 -69.5 31.5t-73.5 11.5q-84 0 -135 -53.5t-51 -165.5v-19h293v-260h-293v-813h-355v813h-184z" />
    <glyph glyph-name="g" unicode="g" horiz-adv-x="1236" 
d="M66 535q0 287 108.5 431t310.5 144q104 0 178 -42t123 -142l41 157l291 -10v-1022q0 -268 -141.5 -415.5t-413.5 -147.5q-133 0 -243.5 35t-186.5 94l117 231q57 -39 136 -62.5t153 -23.5q225 0 225 240v115q-49 -82 -121 -118t-166 -36q-121 0 -214 58.5t-145 184.5
t-52 329zM430 535q0 -158 40 -228.5t130 -70.5q76 0 120 52t44 173v151q0 125 -44 175.5t-120 50.5q-84 0 -127 -65.5t-43 -237.5z" />
    <glyph glyph-name="h" unicode="h" horiz-adv-x="1239" 
d="M119 0v1548h354v-610q41 82 111.5 127t189.5 45q168 0 264.5 -100.5t96.5 -317.5v-692h-355v664q0 172 -143 172q-84 0 -124 -49.5t-40 -135.5v-651h-354z" />
    <glyph glyph-name="i" unicode="i" horiz-adv-x="593" 
d="M98 1389q0 178 199 178t199 -178q0 -179 -199 -179t-199 179zM121 0v1073h354v-1073h-354z" />
    <glyph glyph-name="j" unicode="j" horiz-adv-x="593" 
d="M-215 -459l78 248q20 -10 50 -16t58 -6q150 0 150 213v1093h354v-1059q0 -154 -40 -272.5t-137 -186t-265 -67.5q-66 0 -125.5 11.5t-122.5 41.5zM98 1391q0 180 199 180t199 -180q0 -181 -199 -181t-199 181z" />
    <glyph glyph-name="k" unicode="k" horiz-adv-x="1187" 
d="M119 0v1548h354v-893q113 104 181.5 206t123.5 212h387q-49 -92 -102 -173t-122 -162t-163 -173q104 -104 179 -194t132.5 -179.5t110.5 -191.5h-401q-43 88 -84 158.5t-97.5 140.5t-144.5 152v-451h-354z" />
    <glyph glyph-name="l" unicode="l" horiz-adv-x="591" 
d="M119 0v1548h354v-1548h-354z" />
    <glyph glyph-name="m" unicode="m" horiz-adv-x="1853" 
d="M94 1038l305 52l50 -170q45 92 120.5 141t190.5 49q104 0 183 -41t120 -127q45 74 123 121t207 47q174 0 265 -98.5t91 -317.5v-694h-354v666q0 170 -129 170q-76 0 -115 -50.5t-39 -142.5v-643h-354v666q0 88 -31 129t-102 41q-80 0 -115 -48.5t-35 -136.5v-651h-354
v836z" />
    <glyph glyph-name="n" unicode="n" horiz-adv-x="1241" 
d="M94 1038l305 52l50 -170q43 90 117.5 140t203.5 50q176 0 271.5 -100.5t95.5 -317.5v-692h-355v664q0 172 -143 172q-84 0 -124 -49.5t-40 -135.5v-651h-354v836z" />
    <glyph glyph-name="o" unicode="o" horiz-adv-x="1177" 
d="M55 532q0 285 135.5 431.5t399.5 146.5q260 0 396 -143.5t136 -425.5q0 -287 -137 -432.5t-399 -145.5t-396.5 144.5t-134.5 424.5zM420 537q0 -168 40 -234.5t128 -66.5q92 0 131 68.5t39 230.5q0 170 -39 236.5t-129 66.5q-94 0 -132 -69t-38 -232z" />
    <glyph glyph-name="p" unicode="p" horiz-adv-x="1241" 
d="M96 1038l305 52l54 -179q47 106 123.5 152.5t185.5 46.5q186 0 299 -135t113 -438q0 -287 -107.5 -430.5t-314.5 -143.5q-94 0 -161 32t-116 107v-577h-354v1311zM477 461q0 -125 44 -175t120 -50q84 0 127 64.5t43 236.5q0 156 -39 228.5t-129 72.5q-78 0 -122 -52.5
t-44 -173.5v-151z" />
    <glyph glyph-name="q" unicode="q" horiz-adv-x="1236" 
d="M66 535q0 287 108.5 431t310.5 144q104 0 178 -42t123 -142l41 157l291 -10v-1548h-354v592q-49 -82 -121 -118t-166 -36q-121 0 -214 58.5t-145 184.5t-52 329zM430 535q0 -158 40 -228.5t130 -70.5q76 0 120 52t44 173v151q0 125 -44 175.5t-120 50.5q-84 0 -127 -65.5
t-43 -237.5z" />
    <glyph glyph-name="r" unicode="r" horiz-adv-x="868" 
d="M94 1038l305 52l60 -195q37 94 101.5 151.5t174.5 57.5q33 0 72 -7t74 -28l-88 -315q-45 14 -78 19t-62 5q-100 0 -139 -57t-39 -152v-569h-354v836z" />
    <glyph glyph-name="s" unicode="s" horiz-adv-x="989" 
d="M37 100l117 230q63 -45 147 -69.5t186 -24.5q82 0 109 19t27 48q0 37 -26 53.5t-81 28.5l-108 25q-170 39 -255 122.5t-85 223.5q0 168 118.5 261t327.5 93q115 0 218.5 -33t178.5 -96l-125 -219q-53 35 -118.5 57.5t-147.5 22.5q-125 0 -125 -72q0 -33 25.5 -47
t85.5 -29l106 -24q340 -78 340 -348q0 -170 -125 -264.5t-346 -94.5q-131 0 -246.5 35t-197.5 102z" />
    <glyph glyph-name="t" unicode="t" horiz-adv-x="909" 
d="M2 813v221l184 39v289h359v-289h266v-260h-266v-397q0 -158 125 -158q35 0 71.5 12.5t67.5 26.5l88 -236q-51 -33 -130 -58.5t-183 -25.5q-186 0 -292 98.5t-106 323.5v414h-184z" />
    <glyph glyph-name="u" unicode="u" horiz-adv-x="1226" 
d="M102 381v692h355v-663q0 -172 137 -172q82 0 120 48t38 136v651h354v-835l27 -203l-308 -53l-49 170q-43 -88 -115.5 -138.5t-199.5 -50.5q-170 0 -264.5 100.5t-94.5 317.5z" />
    <glyph glyph-name="v" unicode="v" horiz-adv-x="1093" 
d="M4 1073h365q8 -80 19 -152.5t31.5 -151.5t53.5 -177t84 -230q53 131 86 229.5t52.5 177.5t31.5 151.5t21 152.5h342q-25 -217 -127.5 -495.5t-282.5 -577.5h-268q-174 303 -278.5 579.5t-129.5 493.5z" />
    <glyph glyph-name="w" unicode="w" horiz-adv-x="1605" 
d="M12 1073h350q8 -109 20.5 -208t38 -219t75.5 -290q35 109 64.5 209.5t57 207t58.5 231.5h276q31 -137 76 -300t109 -350q45 170 70.5 291t37.5 220.5t21 207.5h327q-23 -217 -105.5 -498.5t-219.5 -574.5h-267q-55 147 -105 289.5t-91 285.5q-43 -143 -93 -285.5
t-108 -289.5h-266q-135 299 -219 577.5t-107 495.5z" />
    <glyph glyph-name="x" unicode="x" horiz-adv-x="1099" 
d="M-4 0q49 113 141 255t217 298q-119 147 -208 280.5t-140 239.5h373q20 -47 39.5 -88t52.5 -93t90 -132q55 80 88 132t52.5 93t39.5 88h351q-51 -106 -138.5 -240.5t-208.5 -279.5q125 -154 217.5 -297t141.5 -256h-346q-20 49 -44 93t-58.5 99.5t-94.5 139.5
q-61 -84 -96 -139.5t-58.5 -99.5t-44.5 -93h-366z" />
    <glyph glyph-name="y" unicode="y" horiz-adv-x="1101" 
d="M-41 -221q170 0 276.5 40t182.5 146q-174 319 -280.5 601t-137.5 507h365q12 -84 25 -158.5t37 -158.5t60.5 -195.5t94.5 -271.5q68 223 104.5 429t46.5 355h361q-41 -240 -105.5 -468t-154.5 -445q-80 -195 -163 -325t-182.5 -205.5t-228.5 -108.5t-301 -33v291z" />
    <glyph glyph-name="z" unicode="z" horiz-adv-x="985" 
d="M43 0v205l467 590h-438v278h846v-223l-459 -571h477v-279h-893z" />
    <glyph glyph-name="braceleft" unicode="{" horiz-adv-x="808" 
d="M14 545v274h68q102 0 133 31t31 90t-16.5 135t-32 155t-15.5 144q0 104 53.5 187.5t160 131.5t268.5 48q53 0 112 -6v-252q-139 0 -184 -33t-45 -102q0 -29 4 -83.5t9 -118t9 -122.5t4 -96q0 -86 -34.5 -150.5t-141.5 -95.5q96 -31 136 -89t40 -155q0 -37 -4 -95
t-9 -122.5t-9 -119t-4 -81.5q0 -66 44 -96t185 -30v-252q-61 -6 -117 -7q-240 0 -358.5 100.5t-118.5 256.5q0 66 15.5 144.5t32 155.5t16.5 132q0 57 -31 89t-133 32h-68z" />
    <glyph glyph-name="bar" unicode="|" horiz-adv-x="696" 
d="M176 -475v2171h344v-2171h-344z" />
    <glyph glyph-name="braceright" unicode="}" horiz-adv-x="808" 
d="M33 -106q141 0 185 30.5t44 95.5q0 27 -4 81.5t-9 119t-9 122.5t-4 95q0 96 39.5 154.5t136.5 89.5q-106 31 -141 95.5t-35 150.5q0 37 4 96t9 122.5t9 118t4 83.5q0 70 -45 102.5t-184 32.5v252q57 6 112 6q162 0 268.5 -48t160 -131t53.5 -188q0 -66 -16.5 -144.5
t-32 -154.5t-15.5 -135t31 -90t133 -31h68v-274h-68q-100 0 -132 -32t-32 -89q0 -55 15.5 -132t32 -156t16.5 -144q0 -156 -119 -256.5t-358 -100.5q-55 0 -117 7v252z" />
    <glyph glyph-name="asciitilde" unicode="~" 
d="M141 559q0 170 39 267.5t106.5 139.5t153.5 42q96 0 160 -36t113 -75q49 -35 79.5 -51.5t57.5 -16.5q41 0 58.5 36t17.5 124h245q0 -174 -39.5 -271t-108.5 -137t-155 -40q-90 0 -153.5 32.5t-116.5 73.5q-25 20 -60.5 46t-76.5 26q-39 0 -57.5 -34t-18.5 -126h-244z" />
    <glyph glyph-name="uni00A0" unicode="&#xa0;" horiz-adv-x="442" 
 />
    <glyph glyph-name="exclamdown" unicode="&#xa1;" horiz-adv-x="677" 
d="M129 -475l55 1018h310l55 -1018h-420zM139 920q0 100 49.5 145t149.5 45t149.5 -45t49.5 -145t-49.5 -145.5t-149.5 -45.5t-149.5 45t-49.5 146z" />
    <glyph glyph-name="cent" unicode="&#xa2;" horiz-adv-x="1085" 
d="M98 764q0 238 87 377t255 186v221h312v-209q78 -12 141 -40.5t113 -69.5l-117 -213q-33 27 -86 43t-113 16q-115 0 -171 -71.5t-56 -229.5q0 -154 55 -225.5t176 -71.5q61 0 115.5 16.5t93.5 43.5l109 -213q-104 -86 -260 -111v-213h-312v223q-166 41 -254 173t-88 368z
" />
    <glyph glyph-name="sterling" unicode="&#xa3;" 
d="M94 612v254h144q-12 61 -20.5 122t-8.5 116q0 129 54 238.5t166 176t284 66.5q209 0 324.5 -101.5t164.5 -266.5l-287 -87q-20 80 -64 125t-118 45q-80 0 -125 -54t-45 -154q0 -45 8.5 -103.5t18.5 -122.5h440v-254h-407v-22q0 -74 -21.5 -143.5t-75.5 -147.5h707v-299
h-1081v250q80 66 109.5 131t29.5 141q0 39 -6 90h-191z" />
    <glyph glyph-name="currency" unicode="&#xa4;" horiz-adv-x="1482" 
d="M76 344l174 174q-55 111 -55 256t55 256l-174 174l235 236l185 -187q109 43 245 43q135 0 244 -43l184 187l238 -236l-174 -174q53 -111 53 -254q0 -145 -55 -256l176 -176l-238 -235l-184 186q-111 -43 -246 -43t-243 43l-185 -186zM565 774q0 -113 46 -175t130 -62
t130.5 62.5t46.5 174.5q0 113 -46.5 175.5t-130.5 62.5t-130 -62.5t-46 -175.5z" />
    <glyph glyph-name="yen" unicode="&#xa5;" horiz-adv-x="1409" 
d="M53 1548h398q18 -72 37.5 -134t47 -128.5t70.5 -148.5t109 -193q66 111 108.5 193t70.5 148.5t47.5 129t37.5 133.5h377q-41 -164 -139.5 -370.5t-262.5 -429.5h258v-238h-325v-135h325v-238h-325v-137h-365v137h-289v238h289v135h-289v238h226q-164 227 -264.5 431.5
t-141.5 368.5z" />
    <glyph glyph-name="section" unicode="&#xa7;" horiz-adv-x="1118" 
d="M98 -51l117 250q63 -53 151.5 -84t178.5 -31q82 0 113.5 24.5t31.5 65.5q0 57 -49 76.5t-135 44.5q-61 16 -127 40.5t-123 63.5t-93 100.5t-36 153.5q0 188 149 279q-78 47 -113.5 117.5t-35.5 158.5q0 178 119 277.5t325 99.5q242 0 400 -129l-125 -219
q-53 35 -118.5 57.5t-141.5 22.5q-131 0 -131 -86q0 -51 45 -71.5t151 -55.5q63 -20 127 -45t117 -63t85 -97t32 -149t-36 -164t-106 -115q76 -49 113 -119.5t37 -163.5q0 -176 -125 -276t-350 -100q-131 0 -248 34.5t-199 102.5zM401 707q0 -70 52.5 -103t124.5 -33
t115.5 32t43.5 93q0 70 -52 102.5t-124 32.5t-116 -31.5t-44 -92.5z" />
    <glyph glyph-name="dieresis" unicode="&#xa8;" horiz-adv-x="1024" 
d="M106 1411q0 158 170 158t170 -158t-170 -158t-170 158zM578 1411q0 158 170 158t170 -158t-170 -158t-170 158z" />
    <glyph glyph-name="copyright" unicode="&#xa9;" horiz-adv-x="1880" 
d="M88 774q0 254 103.5 441.5t295 289t453.5 101.5t453.5 -101.5t295 -288t103.5 -442.5t-103.5 -442.5t-295 -287.5t-453.5 -101t-453.5 101t-295 288.5t-103.5 441.5zM350 774q0 -289 159 -435t431 -146t431 146t159 435t-159 435.5t-431 146.5t-431 -146.5t-159 -435.5z
M555 752q0 219 114.5 324.5t305.5 105.5q98 0 176 -27t133 -74l-96 -163q-61 47 -168 47q-98 0 -147.5 -48.5t-49.5 -156.5q0 -106 49.5 -155.5t151.5 -49.5q55 0 99 13.5t77 33.5l88 -164q-118 -100 -321 -100q-188 0 -300 98.5t-112 315.5z" />
    <glyph glyph-name="ordfeminine" unicode="&#xaa;" horiz-adv-x="731" 
d="M35 1092q0 113 102.5 181t298.5 73q-4 33 -24.5 58.5t-83.5 25.5q-41 0 -91.5 -14.5t-97.5 -45.5l-69 125q117 90 290 90q152 0 221.5 -66.5t69.5 -191.5v-274l19 -125l-189 -33l-32 117q-25 -55 -80 -88t-127 -33q-88 0 -147.5 53t-59.5 148zM244 1114q0 -39 23.5 -53
t54.5 -14q41 0 78.5 25.5t37.5 76.5v82q-92 -4 -143 -36t-51 -81z" />
    <glyph glyph-name="guillemotleft" unicode="&#xab;" horiz-adv-x="1222" 
d="M20 557v6l342 412h316l-346 -416l354 -414h-324zM541 557v6l342 412h315l-346 -416l354 -414h-323z" />
    <glyph glyph-name="logicalnot" unicode="&#xac;" 
d="M158 813v258h925v-592h-286v334h-639z" />
    <glyph glyph-name="uni00AD" unicode="&#xad;" horiz-adv-x="811" 
d="M119 444v258h573v-258h-573z" />
    <glyph glyph-name="registered" unicode="&#xae;" horiz-adv-x="1296" 
d="M102 1049q0 164 67 284.5t189.5 186t290.5 65.5q166 0 289 -65.5t189.5 -186.5t66.5 -284q0 -164 -66.5 -285t-189.5 -186.5t-289 -65.5q-168 0 -290.5 65.5t-189.5 186.5t-67 285zM283 1049q0 -180 96 -277.5t270 -97.5q172 0 268.5 97t96.5 278q0 180 -96.5 277
t-268.5 97q-174 0 -270 -97t-96 -277zM436 809v481h207q217 0 217 -155q0 -47 -24.5 -83t-77.5 -55q43 -41 75.5 -83t63.5 -105h-170q-23 51 -49.5 92t-61.5 82h-30v-174h-150zM586 1081h47q27 0 49.5 10.5t22.5 45.5q0 31 -20.5 41t-51.5 10h-47v-107z" />
    <glyph glyph-name="macron" unicode="&#xaf;" horiz-adv-x="1024" 
d="M166 1294v215h692v-215h-692z" />
    <glyph glyph-name="degree" unicode="&#xb0;" horiz-adv-x="864" 
d="M125 1298q0 133 84 210t223 77t223 -76.5t84 -210.5q0 -137 -85 -211.5t-222 -74.5t-222 74.5t-85 211.5zM313 1298q0 -55 33 -85.5t86 -30.5t86 30.5t33 85.5t-33 86t-86 31t-86 -30.5t-33 -86.5z" />
    <glyph glyph-name="uni00B2" unicode="&#xb2;" horiz-adv-x="811" 
d="M86 1669q14 141 93 216t214 75t217 -67.5t82 -192.5q0 -57 -22.5 -110.5t-81 -119t-164.5 -161.5h272v-199h-598v158q131 109 208 181.5t111 125.5t34 106q0 90 -70 91q-41 0 -56.5 -35t-27.5 -103z" />
    <glyph glyph-name="uni00B3" unicode="&#xb3;" horiz-adv-x="811" 
d="M70 1206l96 160q35 -33 83 -57.5t103 -24.5q111 0 111 68q0 27 -30 52t-124 25h-53v187h53q66 0 92.5 22.5t26.5 61.5q0 33 -17.5 52t-52.5 19q-37 0 -58 -19t-36 -56l-176 65q23 84 90.5 142.5t198.5 58.5q139 0 217 -66.5t78 -175.5q0 -72 -36 -122t-83 -68
q68 -16 111 -72.5t43 -134.5q0 -100 -82 -165.5t-250 -65.5q-117 0 -185.5 34.5t-119.5 79.5z" />
    <glyph glyph-name="acute" unicode="&#xb4;" horiz-adv-x="1024" 
d="M269 1233l145 397h342l-276 -397h-211z" />
    <glyph glyph-name="paragraph" unicode="&#xb6;" horiz-adv-x="1400" 
d="M61 1061q0 145 70 254.5t194 171t285 61.5h221v-1777h-221v802h-18q-152 0 -271.5 60.5t-189.5 170t-70 257.5zM979 -229v1777h379v-196h-158v-1581h-221z" />
    <glyph glyph-name="periodcentered" unicode="&#xb7;" horiz-adv-x="671" 
d="M137 537q0 100 48 145t151 45q102 0 150 -45t48 -145t-48 -145.5t-150 -45.5t-150.5 45t-48.5 146z" />
    <glyph glyph-name="cedilla" unicode="&#xb8;" horiz-adv-x="1024" 
d="M227 -510l74 150q33 -29 73 -40.5t77 -11.5q100 0 100 76q0 33 -25.5 53.5t-70.5 20.5q-37 0 -70 -12l-43 94l86 207h188l-67 -162q121 -2 184.5 -63.5t63.5 -159.5q0 -115 -84 -173.5t-217 -58.5q-160 0 -269 80z" />
    <glyph glyph-name="uni00B9" unicode="&#xb9;" horiz-adv-x="811" 
d="M127 1817l211 122h227v-829h-237v598l-111 -61z" />
    <glyph glyph-name="ordmasculine" unicode="&#xba;" horiz-adv-x="784" 
d="M49 1233q0 352 344 352q166 0 254 -87t88 -261t-89 -263t-257 -89t-254 89t-86 259zM276 1235q0 -100 28 -142t87 -42q63 0 89 44t26 140q0 102 -26.5 143t-86.5 41q-63 0 -90 -42t-27 -142z" />
    <glyph glyph-name="guillemotright" unicode="&#xbb;" horiz-adv-x="1222" 
d="M16 975h324l342 -412v-6l-342 -412h-315l346 416zM537 975h323l342 -412v-6l-342 -412h-315l346 416z" />
    <glyph glyph-name="onequarter" unicode="&#xbc;" horiz-adv-x="1761" 
d="M127 1426l211 122h227v-829h-237v598l-111 -61zM338 0l895 1548h287l-895 -1548h-287zM999 164v164l352 501h238v-479h96v-186h-96v-164h-219v164h-371zM1212 350h158v225z" />
    <glyph glyph-name="onehalf" unicode="&#xbd;" horiz-adv-x="1761" 
d="M127 1426l211 122h227v-829h-237v598l-111 -61zM276 0l895 1548h287l-895 -1548h-287zM1036 559q14 141 93 216t214 75t217 -67.5t82 -192.5q0 -57 -22.5 -110.5t-81 -119t-164.5 -161.5h272v-199h-598v158q131 109 208 181.5t111 125.5t34 106q0 90 -70 91
q-41 0 -56.5 -35t-27.5 -103z" />
    <glyph glyph-name="threequarters" unicode="&#xbe;" horiz-adv-x="1761" 
d="M70 813l96 160q35 -33 83 -57.5t103 -24.5q111 0 111 68q0 27 -30 52t-124 25h-53v187h53q66 0 92.5 22.5t26.5 61.5q0 33 -17.5 52t-52.5 19q-37 0 -58 -19t-36 -56l-176 65q23 84 90.5 142.5t198.5 58.5q139 0 217 -66.5t78 -175.5q0 -72 -36 -122t-83 -68
q68 -16 111 -72.5t43 -134.5q0 -100 -82 -165.5t-250 -65.5q-117 0 -185.5 34.5t-119.5 79.5zM348 0l895 1548h287l-895 -1548h-287zM999 164v164l352 501h238v-479h96v-186h-96v-164h-219v164h-371zM1212 350h158v225z" />
    <glyph glyph-name="questiondown" unicode="&#xbf;" horiz-adv-x="1040" 
d="M51 -98q0 90 27.5 154.5t71 112.5t83.5 87q59 57 112.5 119.5t57.5 167.5h310q4 -98 -22.5 -167t-69.5 -118t-80 -88q-47 -51 -82 -106.5t-35 -131.5q0 -66 29.5 -111.5t95.5 -45.5q76 0 109.5 59.5t48.5 149.5l301 -60q-27 -199 -152 -317.5t-338 -118.5
q-141 0 -246.5 52t-163 145.5t-57.5 216.5zM358 920q0 100 48.5 145t150.5 45t150.5 -45t48.5 -145t-48.5 -145.5t-150.5 -45.5t-150.5 45t-48.5 146z" />
    <glyph glyph-name="Agrave" unicode="&#xc0;" horiz-adv-x="1423" 
d="M20 0q41 250 114 514t171 526.5t219 507.5h377q188 -395 316.5 -794.5t185.5 -753.5h-375q-14 92 -31.5 183t-38.5 182h-516q-20 -90 -37.5 -181.5t-31.5 -183.5h-353zM178 2064h390l278 -356h-258zM510 635h381q-39 135 -86 276.5t-105 290.5q-57 -150 -104 -291
t-86 -276z" />
    <glyph glyph-name="Aacute" unicode="&#xc1;" horiz-adv-x="1423" 
d="M20 0q41 250 114 514t171 526.5t219 507.5h377q188 -395 316.5 -794.5t185.5 -753.5h-375q-14 92 -31.5 183t-38.5 182h-516q-20 -90 -37.5 -181.5t-31.5 -183.5h-353zM510 635h381q-39 135 -86 276.5t-105 290.5q-57 -150 -104 -291t-86 -276zM580 1708l278 356h390
l-410 -356h-258z" />
    <glyph glyph-name="Acircumflex" unicode="&#xc2;" horiz-adv-x="1423" 
d="M20 0q41 250 114 514t171 526.5t219 507.5h377q188 -395 316.5 -794.5t185.5 -753.5h-375q-14 92 -31.5 183t-38.5 182h-516q-20 -90 -37.5 -181.5t-31.5 -183.5h-353zM277 1708l311 369h250l311 -369h-248l-192 154l-191 -154h-241zM510 635h381q-39 135 -86 276.5
t-105 290.5q-57 -150 -104 -291t-86 -276z" />
    <glyph glyph-name="Atilde" unicode="&#xc3;" horiz-adv-x="1423" 
d="M20 0q41 250 114 514t171 526.5t219 507.5h377q188 -395 316.5 -794.5t185.5 -753.5h-375q-14 92 -31.5 183t-38.5 182h-516q-20 -90 -37.5 -181.5t-31.5 -183.5h-353zM291 1726q0 145 37 230.5t94.5 120t120.5 34.5q72 0 121 -31.5t86 -66.5q27 -23 50.5 -40t49.5 -17
q39 0 62.5 32.5t23.5 108.5h199q0 -147 -37 -231t-94.5 -119t-120.5 -35q-72 0 -121 33t-86 65q-27 23 -50.5 40.5t-49.5 17.5q-39 0 -62.5 -33t-23.5 -109h-199zM510 635h381q-39 135 -86 276.5t-105 290.5q-57 -150 -104 -291t-86 -276z" />
    <glyph glyph-name="Adieresis" unicode="&#xc4;" horiz-adv-x="1423" 
d="M20 0q41 250 114 514t171 526.5t219 507.5h377q188 -395 316.5 -794.5t185.5 -753.5h-375q-14 92 -31.5 183t-38.5 182h-516q-20 -90 -37.5 -181.5t-31.5 -183.5h-353zM260 1886q0 174 187 174q186 0 186 -174t-186 -174t-187 174zM510 635h381q-39 135 -86 276.5
t-105 290.5q-57 -150 -104 -291t-86 -276zM793 1886q0 174 186 174t187 -174q-1 -174 -187 -174t-186 174z" />
    <glyph glyph-name="Aring" unicode="&#xc5;" horiz-adv-x="1423" 
d="M20 0q41 250 114 514t171 526.5t219 507.5h377q188 -395 316.5 -794.5t185.5 -753.5h-375q-14 92 -31.5 183t-38.5 182h-516q-20 -90 -37.5 -181.5t-31.5 -183.5h-353zM387 1958q0 139 88 220t238 81t238 -81t88 -220q0 -143 -90.5 -222t-235.5 -79t-235.5 79t-90.5 222z
M510 635h381q-39 135 -86 276.5t-105 290.5q-57 -150 -104 -291t-86 -276zM586 1958q0 -57 35 -90t92 -33t92 33t35 90t-35 90t-92 33t-92 -33t-35 -90z" />
    <glyph glyph-name="AE" unicode="&#xc6;" horiz-adv-x="2088" 
d="M10 0q98 283 235.5 559.5t308.5 528t368 460.5h1067v-299h-662v-313h629v-299h-629v-338h666v-299h-1022v365h-475q-33 -82 -66 -172.5t-68 -192.5h-352zM616 635h355v559q-111 -147 -197 -281.5t-158 -277.5z" />
    <glyph glyph-name="Ccedilla" unicode="&#xc7;" horiz-adv-x="1308" 
d="M74 774q0 385 172 598t518 213q147 0 271 -43t235 -137l-158 -236q-74 55 -146.5 82t-156.5 27q-178 0 -268 -122t-90 -382t90 -382t268 -122q168 0 313 109l158 -238q-203 -178 -512 -178q-354 0 -524 216t-170 595zM448 -510l72 168q33 -23 78 -36t84 -13q96 0 96 61
q0 27 -24.5 43.5t-67.5 16.5q-39 0 -80 -13l-43 115l84 195h211l-66 -150q119 0 182.5 -63.5t63.5 -165.5q0 -119 -87 -178.5t-224 -59.5q-170 0 -279 80z" />
    <glyph glyph-name="Egrave" unicode="&#xc8;" horiz-adv-x="1294" 
d="M147 0v1548h1047v-299h-682v-313h649v-299h-649v-338h686v-299h-1051zM178 2064h390l278 -356h-258z" />
    <glyph glyph-name="Eacute" unicode="&#xc9;" horiz-adv-x="1294" 
d="M147 0v1548h1047v-299h-682v-313h649v-299h-649v-338h686v-299h-1051zM494 1708l278 356h390l-410 -356h-258z" />
    <glyph glyph-name="Ecircumflex" unicode="&#xca;" horiz-adv-x="1294" 
d="M147 0v1548h1047v-299h-682v-313h649v-299h-649v-338h686v-299h-1051zM234 1708l311 369h250l311 -369h-248l-192 154l-191 -154h-241z" />
    <glyph glyph-name="Edieresis" unicode="&#xcb;" horiz-adv-x="1294" 
d="M147 0v1548h1047v-299h-682v-313h649v-299h-649v-338h686v-299h-1051zM217 1886q0 174 187 174q186 0 186 -174t-186 -174t-187 174zM750 1886q0 174 186 174t187 -174q-1 -174 -187 -174t-186 174z" />
    <glyph glyph-name="Igrave" unicode="&#xcc;" horiz-adv-x="659" 
d="M-205 2064h390l278 -356h-258zM147 0v1548h365v-1548h-365z" />
    <glyph glyph-name="Iacute" unicode="&#xcd;" horiz-adv-x="659" 
d="M147 0v1548h365v-1548h-365zM197 1708l278 356h390l-410 -356h-258z" />
    <glyph glyph-name="Icircumflex" unicode="&#xce;" horiz-adv-x="659" 
d="M-106 1708l311 369h250l311 -369h-248l-192 154l-191 -154h-241zM147 0v1548h365v-1548h-365z" />
    <glyph glyph-name="Idieresis" unicode="&#xcf;" horiz-adv-x="659" 
d="M-123 1886q0 174 187 174q186 0 186 -174t-186 -174t-187 174zM147 0v1548h365v-1548h-365zM410 1886q0 174 186 174t187 -174q-1 -174 -187 -174t-186 174z" />
    <glyph glyph-name="Eth" unicode="&#xd0;" horiz-adv-x="1646" 
d="M86 647v254h207v647h563q358 0 539.5 -198.5t181.5 -575.5t-181.5 -575.5t-539.5 -198.5h-563v647h-207zM657 303h189q184 0 270 112.5t86 358.5t-86 358.5t-270 112.5h-189v-344h338v-254h-338v-344z" />
    <glyph glyph-name="Ntilde" unicode="&#xd1;" horiz-adv-x="1560" 
d="M147 0v1548h345l563 -942v942h358v-1548h-342l-565 944v-944h-359zM358 1726q0 145 37 230.5t94.5 120t120.5 34.5q72 0 121 -31.5t86 -66.5q27 -23 50.5 -40t49.5 -17q39 0 62.5 32.5t23.5 108.5h199q0 -147 -37 -231t-94.5 -119t-120.5 -35q-72 0 -121 33t-86 65
q-27 23 -50.5 40.5t-49.5 17.5q-39 0 -62.5 -33t-23.5 -109h-199z" />
    <glyph glyph-name="Ograve" unicode="&#xd2;" horiz-adv-x="1531" 
d="M74 774q0 408 180 609.5t512 201.5t512 -201.5t180 -609.5t-180 -609.5t-512 -201.5t-512 202t-180 609zM274 2064h390l278 -356h-258zM449 774q0 -274 74.5 -392t242.5 -118t242.5 118t74.5 392t-74.5 392t-242.5 118t-242.5 -117.5t-74.5 -392.5z" />
    <glyph glyph-name="Oacute" unicode="&#xd3;" horiz-adv-x="1531" 
d="M74 774q0 408 180 609.5t512 201.5t512 -201.5t180 -609.5t-180 -609.5t-512 -201.5t-512 202t-180 609zM449 774q0 -274 74.5 -392t242.5 -118t242.5 118t74.5 392t-74.5 392t-242.5 118t-242.5 -117.5t-74.5 -392.5zM590 1708l278 356h390l-410 -356h-258z" />
    <glyph glyph-name="Ocircumflex" unicode="&#xd4;" horiz-adv-x="1531" 
d="M74 774q0 408 180 609.5t512 201.5t512 -201.5t180 -609.5t-180 -609.5t-512 -201.5t-512 202t-180 609zM330 1708l311 369h250l311 -369h-248l-192 154l-191 -154h-241zM449 774q0 -274 74.5 -392t242.5 -118t242.5 118t74.5 392t-74.5 392t-242.5 118t-242.5 -117.5
t-74.5 -392.5z" />
    <glyph glyph-name="Otilde" unicode="&#xd5;" horiz-adv-x="1531" 
d="M74 774q0 408 180 609.5t512 201.5t512 -201.5t180 -609.5t-180 -609.5t-512 -201.5t-512 202t-180 609zM344 1726q0 145 37 230.5t94.5 120t120.5 34.5q72 0 121 -31.5t86 -66.5q27 -23 50.5 -40t49.5 -17q39 0 62.5 32.5t23.5 108.5h199q0 -147 -37 -231t-94.5 -119
t-120.5 -35q-72 0 -121 33t-86 65q-27 23 -50.5 40.5t-49.5 17.5q-39 0 -62.5 -33t-23.5 -109h-199zM449 774q0 -274 74.5 -392t242.5 -118t242.5 118t74.5 392t-74.5 392t-242.5 118t-242.5 -117.5t-74.5 -392.5z" />
    <glyph glyph-name="Odieresis" unicode="&#xd6;" horiz-adv-x="1531" 
d="M74 774q0 408 180 609.5t512 201.5t512 -201.5t180 -609.5t-180 -609.5t-512 -201.5t-512 202t-180 609zM313 1886q0 174 187 174q186 0 186 -174t-186 -174t-187 174zM449 774q0 -274 74.5 -392t242.5 -118t242.5 118t74.5 392t-74.5 392t-242.5 118t-242.5 -117.5
t-74.5 -392.5zM846 1886q0 174 186 174t187 -174q-1 -174 -187 -174t-186 174z" />
    <glyph glyph-name="multiply" unicode="&#xd7;" 
d="M213 1016l201 201l250 -250l241 250l182 -183l-241 -250l252 -254l-201 -200l-250 250l-241 -250l-183 182l242 250z" />
    <glyph glyph-name="Oslash" unicode="&#xd8;" horiz-adv-x="1531" 
d="M74 774q0 408 180 609.5t512 201.5q178 0 313 -57l111 178l221 -133l-125 -201q84 -100 128 -249.5t44 -348.5q0 -408 -180 -609.5t-512 -201.5q-180 0 -315 60l-111 -179l-221 133l125 201q-84 100 -127 250t-43 346zM434 768q0 -150 21 -248l463 746q-59 25 -146 24
q-180 0 -259 -118.5t-79 -403.5zM612 285q60 -27 148 -27q180 0 259 119t79 403q0 152 -21 252z" />
    <glyph glyph-name="Ugrave" unicode="&#xd9;" horiz-adv-x="1480" 
d="M121 612v936h364v-946q0 -317 254 -317q256 0 256 317v946h365v-936q0 -649 -621 -649q-305 0 -461.5 162t-156.5 487zM249 2064h390l278 -356h-258z" />
    <glyph glyph-name="Uacute" unicode="&#xda;" horiz-adv-x="1480" 
d="M121 612v936h364v-946q0 -317 254 -317q256 0 256 317v946h365v-936q0 -649 -621 -649q-305 0 -461.5 162t-156.5 487zM565 1708l278 356h390l-410 -356h-258z" />
    <glyph glyph-name="Ucircumflex" unicode="&#xdb;" horiz-adv-x="1480" 
d="M121 612v936h364v-946q0 -317 254 -317q256 0 256 317v946h365v-936q0 -649 -621 -649q-305 0 -461.5 162t-156.5 487zM305 1708l311 369h250l311 -369h-248l-192 154l-191 -154h-241z" />
    <glyph glyph-name="Udieresis" unicode="&#xdc;" horiz-adv-x="1480" 
d="M121 612v936h364v-946q0 -317 254 -317q256 0 256 317v946h365v-936q0 -649 -621 -649q-305 0 -461.5 162t-156.5 487zM288 1886q0 174 187 174q186 0 186 -174t-186 -174t-187 174zM821 1886q0 174 186 174t187 -174q-1 -174 -187 -174t-186 174z" />
    <glyph glyph-name="Yacute" unicode="&#xdd;" horiz-adv-x="1333" 
d="M4 1548h397q18 -80 39 -150.5t50.5 -145t74.5 -168t113 -216.5q68 123 112 216.5t73.5 168t50 145t38.5 150.5h377q-47 -197 -164.5 -450.5t-316.5 -526.5v-571h-365v578q-195 276 -313.5 525t-165.5 445zM492 1708l278 356h390l-410 -356h-258z" />
    <glyph glyph-name="Thorn" unicode="&#xde;" horiz-adv-x="1384" 
d="M147 0v1548h365v-250h236q293 0 444 -132t151 -392q0 -158 -60 -275.5t-190 -182t-341 -64.5h-240v-252h-365zM512 535h213q125 0 188.5 57t63.5 182q0 242 -252 242h-213v-481z" />
    <glyph glyph-name="germandbls" unicode="&#xdf;" horiz-adv-x="1388" 
d="M119 0v954q0 309 142 470t401 161q211 0 333.5 -99.5t122.5 -256.5q0 -68 -25.5 -128.5t-80.5 -133.5q-45 -61 -58.5 -91t-13.5 -55q0 -35 25.5 -59.5t97.5 -54.5q150 -63 225.5 -147.5t75.5 -227.5q0 -174 -115 -271.5t-305 -97.5q-115 0 -214 37t-169 100l123 226
q41 -27 102.5 -53.5t124.5 -26.5q102 0 103 73q0 29 -28 55.5t-122 65.5q-119 47 -180 121t-61 201q0 66 18 123t66 131q37 57 51 96t14 78q0 66 -32.5 104.5t-92.5 38.5q-84 0 -132 -88t-48 -270v-975h-348z" />
    <glyph glyph-name="agrave" unicode="&#xe0;" horiz-adv-x="1103" 
d="M37 299q0 188 155.5 300t456.5 118q-8 72 -42 103.5t-115 31.5q-66 0 -142 -23.5t-147 -74.5l-115 207q88 72 200.5 110.5t258.5 38.5q236 0 344 -108.5t108 -315.5v-448l27 -203l-305 -53l-51 188q-39 -94 -124.5 -146.5t-191.5 -52.5q-135 0 -226 87t-91 241zM201 1630
h342l145 -397h-211zM377 336q0 -63 34.5 -85t73.5 -22q59 0 112.5 41t53.5 123v133q-127 -6 -200.5 -56t-73.5 -134z" />
    <glyph glyph-name="aacute" unicode="&#xe1;" horiz-adv-x="1103" 
d="M37 299q0 188 155.5 300t456.5 118q-8 72 -42 103.5t-115 31.5q-66 0 -142 -23.5t-147 -74.5l-115 207q88 72 200.5 110.5t258.5 38.5q236 0 344 -108.5t108 -315.5v-448l27 -203l-305 -53l-51 188q-39 -94 -124.5 -146.5t-191.5 -52.5q-135 0 -226 87t-91 241zM377 336
q0 -63 34.5 -85t73.5 -22q59 0 112.5 41t53.5 123v133q-127 -6 -200.5 -56t-73.5 -134zM398 1233l145 397h342l-276 -397h-211z" />
    <glyph glyph-name="acircumflex" unicode="&#xe2;" horiz-adv-x="1103" 
d="M37 299q0 188 155.5 300t456.5 118q-8 72 -42 103.5t-115 31.5q-66 0 -142 -23.5t-147 -74.5l-115 207q88 72 200.5 110.5t258.5 38.5q236 0 344 -108.5t108 -315.5v-448l27 -203l-305 -53l-51 188q-39 -94 -124.5 -146.5t-191.5 -52.5q-135 0 -226 87t-91 241zM144 1233
l284 409h232l282 -409h-231l-170 168l-170 -168h-227zM377 336q0 -63 34.5 -85t73.5 -22q59 0 112.5 41t53.5 123v133q-127 -6 -200.5 -56t-73.5 -134z" />
    <glyph glyph-name="atilde" unicode="&#xe3;" horiz-adv-x="1103" 
d="M37 299q0 188 155.5 300t456.5 118q-8 72 -42 103.5t-115 31.5q-66 0 -142 -23.5t-147 -74.5l-115 207q88 72 200.5 110.5t258.5 38.5q236 0 344 -108.5t108 -315.5v-448l27 -203l-305 -53l-51 188q-39 -94 -124.5 -146.5t-191.5 -52.5q-135 0 -226 87t-91 241zM142 1251
q0 147 34.5 232.5t89 121t115.5 35.5q70 0 114 -31.5t79 -64.5q25 -23 48 -42t50 -19q33 0 52.5 31.5t19.5 107.5h200q0 -147 -34.5 -232t-89 -121t-115.5 -36q-70 0 -114 31.5t-79 64.5q-25 23 -48 42.5t-50 19.5q-33 0 -52.5 -32t-19.5 -108h-200zM377 336q0 -63 34.5 -85
t73.5 -22q59 0 112.5 41t53.5 123v133q-127 -6 -200.5 -56t-73.5 -134z" />
    <glyph glyph-name="adieresis" unicode="&#xe4;" horiz-adv-x="1103" 
d="M37 299q0 188 155.5 300t456.5 118q-8 72 -42 103.5t-115 31.5q-66 0 -142 -23.5t-147 -74.5l-115 207q88 72 200.5 110.5t258.5 38.5q236 0 344 -108.5t108 -315.5v-448l27 -203l-305 -53l-51 188q-39 -94 -124.5 -146.5t-191.5 -52.5q-135 0 -226 87t-91 241zM137 1411
q0 158 170 158t170 -158t-170 -158t-170 158zM377 336q0 -63 34.5 -85t73.5 -22q59 0 112.5 41t53.5 123v133q-127 -6 -200.5 -56t-73.5 -134zM609 1411q0 158 170 158t170 -158t-170 -158t-170 158z" />
    <glyph glyph-name="aring" unicode="&#xe5;" horiz-adv-x="1103" 
d="M37 299q0 188 155.5 300t456.5 118q-8 72 -42 103.5t-115 31.5q-66 0 -142 -23.5t-147 -74.5l-115 207q88 72 200.5 110.5t258.5 38.5q236 0 344 -108.5t108 -315.5v-448l27 -203l-305 -53l-51 188q-39 -94 -124.5 -146.5t-191.5 -52.5q-135 0 -226 87t-91 241zM248 1528
q0 137 82 213t213 76t213 -76t82 -213t-82 -213t-213 -76t-213 76t-82 213zM377 336q0 -63 34.5 -85t73.5 -22q59 0 112.5 41t53.5 123v133q-127 -6 -200.5 -56t-73.5 -134zM437 1528q0 -55 28.5 -87t77.5 -32t77.5 32t28.5 87t-28.5 87t-77.5 32t-77.5 -32t-28.5 -87z" />
    <glyph glyph-name="ae" unicode="&#xe6;" horiz-adv-x="1722" 
d="M37 293q0 195 158.5 306.5t461.5 117.5q-8 78 -46 105.5t-117 27.5q-72 0 -141.5 -21.5t-147.5 -76.5l-117 211q180 145 440 145q236 0 334 -139q113 139 336 139q211 0 334 -126t123 -382v-158h-629q14 -123 68.5 -164.5t154.5 -41.5q88 0 158 23.5t127 68.5l117 -215
q-86 -76 -198.5 -113t-233.5 -37q-158 0 -263.5 60.5t-158.5 189.5q-45 -129 -137.5 -188.5t-237.5 -59.5q-186 0 -285.5 87t-99.5 241zM377 336q0 -61 37 -83t82 -22q72 0 119 49.5t47 180.5v65q-133 -6 -209 -55t-76 -135zM1022 635h319q-2 113 -40.5 160t-116.5 47
t-116 -48.5t-46 -158.5z" />
    <glyph glyph-name="ccedilla" unicode="&#xe7;" horiz-adv-x="985" 
d="M57 524q0 297 136.5 441.5t394.5 144.5q121 0 215 -31.5t162 -89.5l-117 -213q-33 27 -86 43.5t-113 16.5q-115 0 -171 -72t-56 -229q0 -154 55 -225.5t176 -71.5q61 0 115.5 16t93.5 43l109 -213q-145 -121 -393 -121q-252 0 -386.5 134t-134.5 427zM245 -510l74 150
q33 -29 73 -40.5t77 -11.5q100 0 100 76q0 33 -25.5 53.5t-70.5 20.5q-37 0 -70 -12l-43 94l86 207h188l-67 -162q121 -2 184.5 -63.5t63.5 -159.5q0 -115 -84 -173.5t-217 -58.5q-160 0 -269 80z" />
    <glyph glyph-name="egrave" unicode="&#xe8;" horiz-adv-x="1118" 
d="M55 532q0 281 130 429.5t384 148.5q231 0 356.5 -127t125.5 -383v-158h-654q6 -55 26.5 -102t73 -75.5t148.5 -28.5q168 0 285 92l117 -215q-88 -78 -202 -114t-249 -36q-260 0 -400.5 137.5t-140.5 431.5zM227 1630h342l145 -397h-211zM395 635h342q-2 43 -12 91t-46 83
t-112 35t-111.5 -35t-47 -84t-13.5 -90z" />
    <glyph glyph-name="eacute" unicode="&#xe9;" horiz-adv-x="1118" 
d="M55 532q0 281 130 429.5t384 148.5q231 0 356.5 -127t125.5 -383v-158h-654q6 -55 26.5 -102t73 -75.5t148.5 -28.5q168 0 285 92l117 -215q-88 -78 -202 -114t-249 -36q-260 0 -400.5 137.5t-140.5 431.5zM395 635h342q-2 43 -12 91t-46 83t-112 35t-111.5 -35t-47 -84
t-13.5 -90zM424 1233l145 397h342l-276 -397h-211z" />
    <glyph glyph-name="ecircumflex" unicode="&#xea;" horiz-adv-x="1118" 
d="M55 532q0 281 130 429.5t384 148.5q231 0 356.5 -127t125.5 -383v-158h-654q6 -55 26.5 -102t73 -75.5t148.5 -28.5q168 0 285 92l117 -215q-88 -78 -202 -114t-249 -36q-260 0 -400.5 137.5t-140.5 431.5zM170 1233l284 409h232l282 -409h-231l-170 168l-170 -168h-227z
M395 635h342q-2 43 -12 91t-46 83t-112 35t-111.5 -35t-47 -84t-13.5 -90z" />
    <glyph glyph-name="edieresis" unicode="&#xeb;" horiz-adv-x="1118" 
d="M55 532q0 281 130 429.5t384 148.5q231 0 356.5 -127t125.5 -383v-158h-654q6 -55 26.5 -102t73 -75.5t148.5 -28.5q168 0 285 92l117 -215q-88 -78 -202 -114t-249 -36q-260 0 -400.5 137.5t-140.5 431.5zM163 1411q0 158 170 158t170 -158t-170 -158t-170 158zM395 635
h342q-2 43 -12 91t-46 83t-112 35t-111.5 -35t-47 -84t-13.5 -90zM635 1411q0 158 170 158t170 -158t-170 -158t-170 158z" />
    <glyph glyph-name="igrave" unicode="&#xec;" horiz-adv-x="593" 
d="M-94 1630h342l145 -397h-211zM121 0v1073h354v-1073h-354z" />
    <glyph glyph-name="iacute" unicode="&#xed;" horiz-adv-x="593" 
d="M121 0v1073h354v-1073h-354zM201 1233l145 397h342l-276 -397h-211z" />
    <glyph glyph-name="icircumflex" unicode="&#xee;" horiz-adv-x="593" 
d="M-102 1233l284 409h232l282 -409h-231l-170 168l-170 -168h-227zM121 0v1073h354v-1073h-354z" />
    <glyph glyph-name="idieresis" unicode="&#xef;" horiz-adv-x="593" 
d="M-109 1411q0 158 170 158t170 -158t-170 -158t-170 158zM121 0v1073h354v-1073h-354zM363 1411q0 158 170 158t170 -158t-170 -158t-170 158z" />
    <glyph glyph-name="eth" unicode="&#xf0;" horiz-adv-x="1187" 
d="M45 492q0 147 53.5 259.5t151.5 175t235 62.5q221 0 320 -182q-12 123 -50 218t-96 153l-200 -136l-94 144l133 90q-100 39 -236 59l51 244q147 -20 253 -55t182 -80l206 139l95 -143l-164 -111q18 -20 37 -43q96 -127 142 -291t46 -352q0 -315 -129 -497.5t-410 -182.5
q-170 0 -286.5 65.5t-178 184.5t-61.5 279zM389 485q0 -133 50 -195.5t130 -62.5q78 0 133.5 58.5t55.5 189.5q0 117 -49.5 186.5t-143.5 69.5q-84 0 -130 -60.5t-46 -185.5z" />
    <glyph glyph-name="ntilde" unicode="&#xf1;" horiz-adv-x="1241" 
d="M94 1038l305 52l50 -170q43 90 117.5 140t203.5 50q176 0 271.5 -100.5t95.5 -317.5v-692h-355v664q0 172 -143 172q-84 0 -124 -49.5t-40 -135.5v-651h-354v836zM215 1251q0 147 34.5 232.5t89 121t115.5 35.5q70 0 114 -31.5t79 -64.5q25 -23 48 -42t50 -19
q33 0 52.5 31.5t19.5 107.5h200q0 -147 -34.5 -232t-89 -121t-115.5 -36q-70 0 -114 31.5t-79 64.5q-25 23 -48 42.5t-50 19.5q-33 0 -52.5 -32t-19.5 -108h-200z" />
    <glyph glyph-name="ograve" unicode="&#xf2;" horiz-adv-x="1177" 
d="M55 532q0 285 135.5 431.5t399.5 146.5q260 0 396 -143.5t136 -425.5q0 -287 -137 -432.5t-399 -145.5t-396.5 144.5t-134.5 424.5zM248 1630h342l145 -397h-211zM420 537q0 -168 40 -234.5t128 -66.5q92 0 131 68.5t39 230.5q0 170 -39 236.5t-129 66.5q-94 0 -132 -69
t-38 -232z" />
    <glyph glyph-name="oacute" unicode="&#xf3;" horiz-adv-x="1177" 
d="M55 532q0 285 135.5 431.5t399.5 146.5q260 0 396 -143.5t136 -425.5q0 -287 -137 -432.5t-399 -145.5t-396.5 144.5t-134.5 424.5zM420 537q0 -168 40 -234.5t128 -66.5q92 0 131 68.5t39 230.5q0 170 -39 236.5t-129 66.5q-94 0 -132 -69t-38 -232zM445 1233l145 397
h342l-276 -397h-211z" />
    <glyph glyph-name="ocircumflex" unicode="&#xf4;" horiz-adv-x="1177" 
d="M55 532q0 285 135.5 431.5t399.5 146.5q260 0 396 -143.5t136 -425.5q0 -287 -137 -432.5t-399 -145.5t-396.5 144.5t-134.5 424.5zM191 1233l284 409h232l282 -409h-231l-170 168l-170 -168h-227zM420 537q0 -168 40 -234.5t128 -66.5q92 0 131 68.5t39 230.5
q0 170 -39 236.5t-129 66.5q-94 0 -132 -69t-38 -232z" />
    <glyph glyph-name="otilde" unicode="&#xf5;" horiz-adv-x="1177" 
d="M55 532q0 285 135.5 431.5t399.5 146.5q260 0 396 -143.5t136 -425.5q0 -287 -137 -432.5t-399 -145.5t-396.5 144.5t-134.5 424.5zM189 1251q0 147 34.5 232.5t89 121t115.5 35.5q70 0 114 -31.5t79 -64.5q25 -23 48 -42t50 -19q33 0 52.5 31.5t19.5 107.5h200
q0 -147 -34.5 -232t-89 -121t-115.5 -36q-70 0 -114 31.5t-79 64.5q-25 23 -48 42.5t-50 19.5q-33 0 -52.5 -32t-19.5 -108h-200zM420 537q0 -168 40 -234.5t128 -66.5q92 0 131 68.5t39 230.5q0 170 -39 236.5t-129 66.5q-94 0 -132 -69t-38 -232z" />
    <glyph glyph-name="odieresis" unicode="&#xf6;" horiz-adv-x="1177" 
d="M55 532q0 285 135.5 431.5t399.5 146.5q260 0 396 -143.5t136 -425.5q0 -287 -137 -432.5t-399 -145.5t-396.5 144.5t-134.5 424.5zM184 1411q0 158 170 158t170 -158t-170 -158t-170 158zM420 537q0 -168 40 -234.5t128 -66.5q92 0 131 68.5t39 230.5q0 170 -39 236.5
t-129 66.5q-94 0 -132 -69t-38 -232zM656 1411q0 158 170 158t170 -158t-170 -158t-170 158z" />
    <glyph glyph-name="divide" unicode="&#xf7;" 
d="M193 645v258h925v-258h-925zM487 399q0 84 40 121t124 37t124 -37t40 -121t-40 -120.5t-124 -36.5t-124 36.5t-40 120.5zM487 1147q0 82 40 120t124 38t124 -38t40 -120t-40 -120t-124 -38t-124 38t-40 120z" />
    <glyph glyph-name="oslash" unicode="&#xf8;" horiz-adv-x="1177" 
d="M55 532q0 285 135.5 431.5t399.5 146.5q115 0 207 -29l88 148l174 -96l-90 -150q154 -145 153 -442q0 -287 -137 -432.5t-399 -145.5q-115 0 -207 29l-88 -150l-174 97l90 151q-152 143 -152 442zM369 537q0 -92 12 -156l293 491q-37 12 -84 13q-121 0 -171 -79t-50 -269
zM504 201q35 -13 84 -13q121 0 171 79t50 268q0 94 -12 159z" />
    <glyph glyph-name="ugrave" unicode="&#xf9;" horiz-adv-x="1226" 
d="M102 381v692h355v-663q0 -172 137 -172q82 0 120 48t38 136v651h354v-835l27 -203l-308 -53l-49 170q-43 -88 -115.5 -138.5t-199.5 -50.5q-170 0 -264.5 100.5t-94.5 317.5zM262 1630h342l145 -397h-211z" />
    <glyph glyph-name="uacute" unicode="&#xfa;" horiz-adv-x="1226" 
d="M102 381v692h355v-663q0 -172 137 -172q82 0 120 48t38 136v651h354v-835l27 -203l-308 -53l-49 170q-43 -88 -115.5 -138.5t-199.5 -50.5q-170 0 -264.5 100.5t-94.5 317.5zM459 1233l145 397h342l-276 -397h-211z" />
    <glyph glyph-name="ucircumflex" unicode="&#xfb;" horiz-adv-x="1226" 
d="M102 381v692h355v-663q0 -172 137 -172q82 0 120 48t38 136v651h354v-835l27 -203l-308 -53l-49 170q-43 -88 -115.5 -138.5t-199.5 -50.5q-170 0 -264.5 100.5t-94.5 317.5zM205 1233l284 409h232l282 -409h-231l-170 168l-170 -168h-227z" />
    <glyph glyph-name="udieresis" unicode="&#xfc;" horiz-adv-x="1226" 
d="M102 381v692h355v-663q0 -172 137 -172q82 0 120 48t38 136v651h354v-835l27 -203l-308 -53l-49 170q-43 -88 -115.5 -138.5t-199.5 -50.5q-170 0 -264.5 100.5t-94.5 317.5zM198 1411q0 158 170 158t170 -158t-170 -158t-170 158zM670 1411q0 158 170 158t170 -158
t-170 -158t-170 158z" />
    <glyph glyph-name="yacute" unicode="&#xfd;" horiz-adv-x="1101" 
d="M-41 -221q170 0 276.5 40t182.5 146q-174 319 -280.5 601t-137.5 507h365q12 -84 25 -158.5t37 -158.5t60.5 -195.5t94.5 -271.5q68 223 104.5 429t46.5 355h361q-41 -240 -105.5 -468t-154.5 -445q-80 -195 -163 -325t-182.5 -205.5t-228.5 -108.5t-301 -33v291z
M392 1233l145 397h342l-276 -397h-211z" />
    <glyph glyph-name="thorn" unicode="&#xfe;" horiz-adv-x="1236" 
d="M119 -475v2023h354v-592q49 82 120 118t167 36q186 0 298.5 -135t112.5 -438q0 -287 -107.5 -430.5t-313.5 -143.5q-94 0 -161 32t-116 107v-577h-354zM473 461q0 -125 44 -175t120 -50q84 0 127 64.5t43 236.5q0 156 -39 228.5t-129 72.5q-78 0 -122 -52.5t-44 -173.5
v-151z" />
    <glyph glyph-name="ydieresis" unicode="&#xff;" horiz-adv-x="1101" 
d="M-41 -221q170 0 276.5 40t182.5 146q-174 319 -280.5 601t-137.5 507h365q12 -84 25 -158.5t37 -158.5t60.5 -195.5t94.5 -271.5q68 223 104.5 429t46.5 355h361q-41 -240 -105.5 -468t-154.5 -445q-80 -195 -163 -325t-182.5 -205.5t-228.5 -108.5t-301 -33v291z
M131 1411q0 158 170 158t170 -158t-170 -158t-170 158zM603 1411q0 158 170 158t170 -158t-170 -158t-170 158z" />
    <glyph glyph-name="OE" unicode="&#x152;" horiz-adv-x="2185" 
d="M74 774q0 406 164.5 608.5t445.5 202.5q119 0 206 -39t148 -125v127h1047v-299h-692v-313h659v-299h-659v-338h696v-299h-1051v129q-66 -90 -153.5 -128t-204.5 -38q-281 0 -443.5 203t-162.5 608zM449 774q0 -274 68.5 -392t232.5 -118q158 0 229.5 118t71.5 392
t-71 392t-230 118q-164 0 -232.5 -117.5t-68.5 -392.5z" />
    <glyph glyph-name="oe" unicode="&#x153;" horiz-adv-x="1826" 
d="M55 532q0 285 136.5 431.5t388.5 146.5q131 0 218 -41t142 -123q55 82 139 122t209 40q221 0 345 -126t124 -382v-158h-649q18 -119 75.5 -161.5t159.5 -42.5q174 0 295 92l121 -215q-90 -82 -208.5 -116t-239.5 -34q-125 0 -217.5 37t-155.5 123q-63 -86 -151.5 -124
t-211.5 -38q-252 0 -386 144.5t-134 424.5zM420 539q0 -170 40 -236.5t128 -66.5q92 0 131 68.5t39 232.5q0 168 -39 234.5t-129 66.5q-94 0 -132 -69t-38 -230zM1104 635h342q-2 113 -45 160t-123 47q-82 0 -123 -47t-51 -160z" />
    <glyph glyph-name="Ydieresis" unicode="&#x178;" horiz-adv-x="1333" 
d="M4 1548h397q18 -80 39 -150.5t50.5 -145t74.5 -168t113 -216.5q68 123 112 216.5t73.5 168t50 145t38.5 150.5h377q-47 -197 -164.5 -450.5t-316.5 -526.5v-571h-365v578q-195 276 -313.5 525t-165.5 445zM215 1886q0 174 187 174q186 0 186 -174t-186 -174t-187 174z
M748 1886q0 174 186 174t187 -174q-1 -174 -187 -174t-186 174z" />
    <glyph glyph-name="circumflex" unicode="&#x2c6;" horiz-adv-x="1024" 
d="M113 1233l284 409h232l282 -409h-231l-170 168l-170 -168h-227z" />
    <glyph glyph-name="tilde" unicode="&#x2dc;" horiz-adv-x="1024" 
d="M111 1251q0 147 34.5 232.5t89 121t115.5 35.5q70 0 114 -31.5t79 -64.5q25 -23 48 -42t50 -19q33 0 52.5 31.5t19.5 107.5h200q0 -147 -34.5 -232t-89 -121t-115.5 -36q-70 0 -114 31.5t-79 64.5q-25 23 -48 42.5t-50 19.5q-33 0 -52.5 -32t-19.5 -108h-200z" />
    <glyph glyph-name="uni2000" unicode="&#x2000;" horiz-adv-x="1129" 
 />
    <glyph glyph-name="uni2001" unicode="&#x2001;" horiz-adv-x="2259" 
 />
    <glyph glyph-name="uni2002" unicode="&#x2002;" horiz-adv-x="1129" 
 />
    <glyph glyph-name="uni2003" unicode="&#x2003;" horiz-adv-x="2259" 
 />
    <glyph glyph-name="uni2004" unicode="&#x2004;" horiz-adv-x="753" 
 />
    <glyph glyph-name="uni2005" unicode="&#x2005;" horiz-adv-x="564" 
 />
    <glyph glyph-name="uni2006" unicode="&#x2006;" horiz-adv-x="376" 
 />
    <glyph glyph-name="uni2007" unicode="&#x2007;" horiz-adv-x="376" 
 />
    <glyph glyph-name="uni2008" unicode="&#x2008;" horiz-adv-x="282" 
 />
    <glyph glyph-name="uni2009" unicode="&#x2009;" horiz-adv-x="451" 
 />
    <glyph glyph-name="uni200A" unicode="&#x200a;" horiz-adv-x="125" 
 />
    <glyph glyph-name="uni2010" unicode="&#x2010;" horiz-adv-x="811" 
d="M119 444v258h573v-258h-573z" />
    <glyph glyph-name="uni2011" unicode="&#x2011;" horiz-adv-x="811" 
d="M119 444v258h573v-258h-573z" />
    <glyph glyph-name="figuredash" unicode="&#x2012;" horiz-adv-x="811" 
d="M119 444v258h573v-258h-573z" />
    <glyph glyph-name="endash" unicode="&#x2013;" horiz-adv-x="1024" 
d="M119 444v258h786v-258h-786z" />
    <glyph glyph-name="emdash" unicode="&#x2014;" horiz-adv-x="2048" 
d="M119 444v258h1810v-258h-1810z" />
    <glyph glyph-name="quoteleft" unicode="&#x2018;" horiz-adv-x="552" 
d="M94 1184q0 164 76 260t209 141l84 -151q-145 -57 -156 -168q59 -2 98 -40t39 -114q0 -150 -168 -149q-63 0 -101 20.5t-56 58.5q-25 51 -25 142z" />
    <glyph glyph-name="quoteright" unicode="&#x2019;" horiz-adv-x="552" 
d="M90 1114q145 57 156 168q-59 2 -98 40t-39 114q0 150 167 149q63 0 101.5 -20.5t56.5 -59.5q25 -51 25 -141q0 -164 -76 -260t-209 -141z" />
    <glyph glyph-name="quotesinglbase" unicode="&#x201a;" horiz-adv-x="552" 
d="M90 -199q145 57 156 168q-59 2 -98 40t-39 114q0 150 167 149q63 0 101.5 -20.5t56.5 -59.5q25 -51 25 -141q0 -164 -76 -260t-209 -141z" />
    <glyph glyph-name="quotedblleft" unicode="&#x201c;" horiz-adv-x="962" 
d="M94 1184q0 164 76 260t209 141l84 -151q-145 -57 -156 -168q59 -2 98 -40t39 -114q0 -150 -168 -149q-63 0 -101 20.5t-56 58.5q-25 51 -25 142zM504 1184q0 164 76 260t209 141l84 -151q-145 -57 -156 -168q59 -2 98 -40t39 -114q0 -150 -168 -149q-63 0 -101 20.5
t-56 58.5q-25 51 -25 142z" />
    <glyph glyph-name="quotedblright" unicode="&#x201d;" horiz-adv-x="962" 
d="M90 1120q145 57 156 168q-59 2 -98 40t-39 114q0 150 167 149q63 0 101.5 -20.5t56.5 -59.5q25 -51 25 -141q0 -164 -76 -260t-209 -141zM500 1120q145 57 156 168q-59 2 -98 40t-39 114q0 150 167 149q63 0 101.5 -20.5t56.5 -59.5q25 -51 25 -141q0 -164 -76 -260
t-209 -141z" />
    <glyph glyph-name="quotedblbase" unicode="&#x201e;" horiz-adv-x="962" 
d="M90 -193q145 57 156 168q-59 2 -98 40t-39 114q0 150 167 149q63 0 101.5 -20.5t56.5 -59.5q25 -51 25 -141q0 -164 -76 -260t-209 -141zM500 -193q145 57 156 168q-59 2 -98 40t-39 114q0 150 167 149q63 0 101.5 -20.5t56.5 -59.5q25 -51 25 -141q0 -164 -76 -260
t-209 -141z" />
    <glyph glyph-name="bullet" unicode="&#x2022;" horiz-adv-x="880" 
d="M121 557q0 156 79 231.5t240 75.5q162 0 241 -75.5t79 -231.5t-79 -231.5t-241 -75.5t-240.5 75.5t-78.5 231.5z" />
    <glyph glyph-name="ellipsis" unicode="&#x2026;" horiz-adv-x="2048" 
d="M143 154q0 100 48 145t151 45q102 0 150 -45t48 -145t-48 -145.5t-150 -45.5t-150.5 45t-48.5 146zM825 154q0 100 48 145t151 45q102 0 150 -45t48 -145t-48 -145.5t-150 -45.5t-150.5 45t-48.5 146zM1507 154q0 100 48 145t151 45q102 0 150 -45t48 -145t-48 -145.5
t-150 -45.5t-150.5 45t-48.5 146z" />
    <glyph glyph-name="uni202F" unicode="&#x202f;" horiz-adv-x="451" 
 />
    <glyph glyph-name="guilsinglleft" unicode="&#x2039;" horiz-adv-x="702" 
d="M20 557v6l342 412h316l-346 -416l354 -414h-324z" />
    <glyph glyph-name="guilsinglright" unicode="&#x203a;" horiz-adv-x="702" 
d="M16 975h324l342 -412v-6l-342 -412h-315l346 416z" />
    <glyph glyph-name="uni205F" unicode="&#x205f;" horiz-adv-x="564" 
 />
    <glyph glyph-name="Euro" unicode="&#x20ac;" horiz-adv-x="1515" 
d="M100 469v238h166q-2 33 -2 67q0 35 2 68h-166v237h197q61 244 229 375t447 131q137 0 250.5 -34.5t210.5 -110.5l-129 -252q-137 90 -293 90q-238 0 -324 -199h391v-237h-438q-2 -33 -2 -68t2 -67h438v-238h-391q86 -199 322 -199q164 0 303 90l131 -251
q-188 -145 -473 -146q-281 0 -448 133t-226 373h-197z" />
    <glyph glyph-name="trademark" unicode="&#x2122;" horiz-adv-x="2193" 
d="M80 1325v223h807v-223h-273v-629h-262v629h-272zM1012 696v852h280l217 -356l220 356h272v-852h-256v467l-168 -264h-139l-166 262v-465h-260z" />
    <glyph glyph-name="uni25FC" unicode="&#x25fc;" horiz-adv-x="1075" 
d="M0 0v1075h1075v-1075h-1075z" />
    <glyph glyph-name="uniFB01" unicode="&#xfb01;" horiz-adv-x="1382" 
d="M6 813v221l184 39q4 150 52.5 265.5t146.5 181t254 65.5q59 0 107.5 -9t83.5 -22l-46 -251q-23 4 -43 6t-34 2q-166 0 -166 -219v-19h733v-1073h-354v813h-379v-813h-355v813h-184zM922 1389q0 166 180 165q182 0 182 -165q0 -164 -182 -164q-180 0 -180 164z" />
    <glyph glyph-name="uniFB02" unicode="&#xfb02;" horiz-adv-x="1433" 
d="M6 813v221l184 39q4 150 52.5 265.5t146.5 181t254 65.5q59 0 107.5 -9t83.5 -22l-46 -251q-23 4 -43 6t-34 2q-166 0 -166 -219v-19h260v-260h-260v-813h-355v813h-184zM961 0v1548h354v-1548h-354z" />
    <glyph glyph-name="uniFB03" unicode="&#xfb03;" horiz-adv-x="2115" 
d="M6 813v221l184 39q2 143 48.5 253t141.5 172.5t243 62.5q88 0 157.5 -20.5t114.5 -49.5l-90 -221q-45 23 -103 22q-76 0 -118.5 -49t-42.5 -151v-19h383q4 150 52 265.5t146.5 181t253.5 65.5q59 0 107.5 -9t83.5 -22l-45 -251q-23 4 -43.5 6t-34.5 2q-166 0 -166 -219
v-19h733v-1073h-354v813h-379v-813h-354v813h-383v-813h-351v813h-184zM1655 1389q0 166 180 165q182 0 182 -165q0 -164 -182 -164q-180 0 -180 164z" />
    <glyph glyph-name="uniFB04" unicode="&#xfb04;" horiz-adv-x="2166" 
d="M6 813v221l184 39q2 143 48.5 253t141.5 172.5t243 62.5q88 0 157.5 -20.5t114.5 -49.5l-90 -221q-45 23 -103 22q-76 0 -118.5 -49t-42.5 -151v-19h383q4 150 52 265.5t146.5 181t253.5 65.5q59 0 107.5 -9t83.5 -22l-45 -251q-23 4 -43.5 6t-34.5 2q-166 0 -166 -219
v-19h260v-260h-260v-813h-354v813h-383v-813h-351v813h-184zM1694 0v1548h354v-1548h-354z" />
    </font>
</defs>
</svg>
